<svg version="1.0" xmlns="http://www.w3.org/2000/svg"
 width="93.000000pt" height="94.000000pt" viewBox="0 0 93.000000 94.000000"
 preserveAspectRatio="xMidYMid meet">

<g transform="translate(0.000000,94.000000) scale(0.100000,-0.100000)"
fill="#000000" stroke="none">
<path d="M285 815 c-99 -36 -189 -69 -200 -74 l-21 -9 31 -263 30 -264 169
-94 169 -95 91 49 c50 27 127 69 171 94 l80 46 31 260 c17 143 28 263 24 267
-3 4 -87 37 -185 72 -99 35 -187 67 -195 70 -8 3 -96 -24 -195 -59z m310 -322
c63 -141 115 -261 115 -265 0 -4 -20 -8 -44 -8 l-44 0 -25 63 -25 62 -107 0
-107 0 -25 -62 -25 -63 -48 0 -47 0 125 281 c91 203 128 276 134 265 5 -9 60
-131 123 -273z"/>
<path d="M432 518 c-18 -42 -32 -81 -32 -87 0 -7 26 -11 66 -11 l66 0 -6 26
c-4 14 -19 54 -35 88 l-27 61 -32 -77z"/>
</g>
</svg>
